<svg id="Capa_1" enable-background="new 0 0 512 512" height="512" viewBox="0 0 512 512" width="512" xmlns="http://www.w3.org/2000/svg" xmlns:xlink="http://www.w3.org/1999/xlink"><linearGradient id="SVGID_1_" gradientUnits="userSpaceOnUse" x1="256" x2="256" y1="512" y2="0"><stop offset="0" stop-color="#addcff"/><stop offset=".5028" stop-color="#eaf6ff"/><stop offset="1" stop-color="#eaf6ff"/></linearGradient><linearGradient id="SVGID_2_" gradientUnits="userSpaceOnUse" x1="256" x2="256" y1="407" y2="105"><stop offset="0" stop-color="#00c0ff"/><stop offset="1" stop-color="#5558ff"/></linearGradient><g><g><circle cx="256" cy="256" fill="url(#SVGID_1_)" r="256"/></g><g><g><path d="m338.543 178.652c-12.942 12.942-20.367 30.847-20.367 49.098v72.658h53.294v-72.658c0-18.251-7.425-36.155-20.367-49.098-3.469-3.469-9.09-3.469-12.56 0zm-20.366 175.052h-8.882c-4.91 0-8.883 3.973-8.883 8.883s3.973 8.883 8.883 8.883h8.882v26.648c0 4.91 3.973 8.883 8.882 8.883h35.53c4.909 0 8.882-3.973 8.882-8.883v-79.944h-53.294zm79.941-213.185h-209.499l-32.927-32.928c-2.533-2.533-6.384-3.279-9.68-1.926-3.313 1.371-5.482 4.615-5.482 8.206v26.648h-26.647c-4.91 0-8.882 3.973-8.882 8.883v106.592c0 4.91 3.973 8.883 8.882 8.883h186.529v-37.127c0-22.935 9.316-45.402 25.572-61.658 10.421-10.421 27.269-10.412 37.681 0 16.255 16.256 25.572 38.723 25.572 61.658v37.127h8.882c4.91 0 8.882-3.973 8.882-8.883v-106.592c-.001-4.91-3.974-8.883-8.883-8.883zm-230.941 88.827h-17.765c-4.909 0-8.882-3.973-8.882-8.883s3.973-8.883 8.882-8.883h17.765c4.909 0 8.882 3.973 8.882 8.883s-3.973 8.883-8.882 8.883zm88.823 0h-53.294c-4.909 0-8.882-3.973-8.882-8.883s3.973-8.883 8.882-8.883h53.294c4.91 0 8.882 3.973 8.882 8.883s-3.972 8.883-8.882 8.883zm35.529-35.531h-142.117c-4.909 0-8.882-3.973-8.882-8.883s3.973-8.883 8.882-8.883h142.118c4.91 0 8.882 3.973 8.882 8.883 0 4.911-3.973 8.883-8.883 8.883z" fill="url(#SVGID_2_)"/></g></g></g></svg>